PathFileType	4	(X/Y/Z)	/Users/niels/Desktop/University/Third Semester/Perception and Action/Exam/Gymnastics Motion Tracking/Code for Gym Tracking/Analyzed Data/Webcam_Backflip/id6_1_baseline_Sports2D/id6_1_baseline_Sports2D_px_person00.trc
DataRate	CameraRate	NumFrames	NumMarkers	Units	OrigDataRate	OrigDataStartFrame	OrigNumFrames
29.806451612903224	29.806451612903224	12	22	m	29.806451612903224	77	155
Frame#	Time	Hip			RHip			RKnee			RAnkle			RBigToe			RSmallToe			RHeel			LHip			LKnee			LAnkle			LBigToe			LSmallToe			LHeel			Neck			Head			Nose			RShoulder			RElbow			RWrist			LShoulder			LElbow			LWrist		
		X1	Y1	Z1	X2	Y2	Z2	X3	Y3	Z3	X4	Y4	Z4	X5	Y5	Z5	X6	Y6	Z6	X7	Y7	Z7	X8	Y8	Z8	X9	Y9	Z9	X10	Y10	Z10	X11	Y11	Z11	X12	Y12	Z12	X13	Y13	Z13	X14	Y14	Z14	X15	Y15	Z15	X16	Y16	Z16	X17	Y17	Z17	X18	Y18	Z18	X19	Y19	Z19	X20	Y20	Z20	X21	Y21	Z21	X22	Y22	Z22
77	2.5833333333333335	0.7766527486740091	-0.6495447241331459	0.0	0.7730317502392685	-0.6517613782753227	0.0	0.8355050972107492	-0.7300587054232824	0.0	0.8080007828106438	-0.8205560065594848	0.0	0.826251767921952	-0.8280657425107583	0.0	0.8218252304353395	-0.8302860181116662	0.0	0.7982105894983527	-0.8285661838617111	0.0	0.773491851297897	-0.6512454754626742	0.0	0.7771038252136157	-0.7439878319282217	0.0	0.7181498085800799	-0.8038636924002494	0.0	0.727919590646433	-0.8248064739045516	0.0	0.7209577571934702	-0.8205163456665376	0.0	0.7071862514838956	-0.8084157728969973	0.0	0.8123296200736514	-0.5265891770071072	0.0	0.8398539736455537	-0.4709930804619595	0.0	0.8470421563127739	-0.5054209265742121	0.0	0.7986236335092506	-0.5393879671938709	0.0	0.7682287649852607	-0.5917531991640966	0.0	0.8147739939384978	-0.6254712308486107	0.0	0.8065093936489898	-0.5390966152152705	0.0	0.7837013088919699	-0.5901555258270271	0.0	0.8102312313606856	-0.6298629307567252	0.0
78	2.616883116883117	0.7810952502549826	-0.6437732220017813	0.0	0.7776976123066911	-0.6455172738301567	0.0	0.8397162608968326	-0.7252692511664518	0.0	0.8077268632038824	-0.8142362501337912	0.0	0.8285520037376033	-0.822394729787248	0.0	0.8225189063908874	-0.8246460354664207	0.0	0.7971475545656993	-0.8219144429407341	0.0	0.7780035369149614	-0.6448588892987654	0.0	0.7906396715355652	-0.7364003897853503	0.0	0.7246956423796624	-0.7878331946131428	0.0	0.7291425670219065	-0.8132228644056393	0.0	0.7242603099316172	-0.8081651452144997	0.0	0.7128898811227143	-0.7902713363014653	0.0	0.8184516763064726	-0.5218000138868953	0.0	0.8464344371439718	-0.4667407158998654	0.0	0.8538209411016338	-0.500963266823959	0.0	0.805376525758488	-0.5346064624392043	0.0	0.7771695119344009	-0.5886880632356993	0.0	0.8217133232790766	-0.624330748113835	0.0	0.8120448335390567	-0.5347241537758811	0.0	0.7908426715618055	-0.5883098951318677	0.0	0.8154471858453151	-0.6293988993341135	0.0
79	2.6504329004329006	0.7868585657876054	-0.6314393973511744	0.0	0.7834200198971812	-0.632620604959928	0.0	0.8458020379863522	-0.7131412981707208	0.0	0.8088778893729303	-0.8003667173642351	0.0	0.8325143544944901	-0.8115941760025114	0.0	0.8247411581312222	-0.8135232558325106	0.0	0.7974871005095893	-0.808277016238651	0.0	0.7842892043889749	-0.6318666424010767	0.0	0.807441296281606	-0.7217667749095747	0.0	0.7353409533154719	-0.765471645971422	0.0	0.7350345932399788	-0.7960028609202167	0.0	0.7319274677137945	-0.7903201377871091	0.0	0.7226427768219547	-0.7658311051460097	0.0	0.8255683998989131	-0.5105926747189078	0.0	0.8544843839582041	-0.4560029886247615	0.0	0.8613869788942037	-0.4901793375207841	0.0	0.812888736874978	-0.5231656978052748	0.0	0.7864797484272741	-0.5776060894699846	0.0	0.8303722064222174	-0.613957223288657	0.0	0.8186397865102307	-0.5236651436590025	0.0	0.798071244070712	-0.5787337190877684	0.0	0.821682344634628	-0.6205937097601065	0.0
80	2.683982683982684	0.7935941793695732	-0.6149939395044536	0.0	0.7900131946592529	-0.6156894625871983	0.0	0.8532916593997878	-0.6965101249918179	0.0	0.8115142088679589	-0.7819109120357816	0.0	0.8375573655710393	-0.7978589544857235	0.0	0.8283118389390411	-0.7991547275028741	0.0	0.7993323304210418	-0.790277848674517	0.0	0.7918800341780606	-0.6149061021527945	0.0	0.8257734381998587	-0.7026247380229146	0.0	0.7495562201269839	-0.7413694568505306	0.0	0.7467869071292845	-0.776630811331214	0.0	0.7447075296430967	-0.7704352607978169	0.0	0.7360578167595618	-0.7402243171868413	0.0	0.833191233506256	-0.4952172912614719	0.0	0.863493925209146	-0.4410044266731672	0.0	0.86935462441161	-0.4753133204488599	0.0	0.8207224003848144	-0.5073360578847933	0.0	0.7957796462250126	-0.5612399814695319	0.0	0.8404237349126668	-0.5972042401485339	0.0	0.825883205643907	-0.5081900872559734	0.0	0.8050077357870536	-0.5638455394308602	0.0	0.8285577637619252	-0.6061531744743396	0.0
81	2.7175324675324677	0.8009175197394925	-0.5969679127273139	0.0	0.7973521335378001	-0.5973755042097649	0.0	0.8616210230974536	-0.6783120279157716	0.0	0.8158744583868637	-0.7621947799814572	0.0	0.8433584993577232	-0.7837143295201587	0.0	0.8332113322091245	-0.7841627595219324	0.0	0.8029614706657902	-0.770922284559399	0.0	0.8001199506796687	-0.5966259823320976	0.0	0.8437414701174326	-0.6819601427161545	0.0	0.7666271139320826	-0.7203017160374234	0.0	0.7650296398468152	-0.7591159539717678	0.0	0.7629761968781691	-0.7524962808325282	0.0	0.7525058939158003	-0.7188352129543562	0.0	0.8409049601249791	-0.4779746753430832	0.0	0.8730513473240704	-0.4240457369642024	0.0	0.8774211104951385	-0.4585622675159437	0.0	0.8286162249647284	-0.4894587214578527	0.0	0.8047894551753352	-0.542450033683988	0.0	0.8512672864184248	-0.5772245309982054	0.0	0.8334223010760349	-0.49061480959158094	0.0	0.8115299079286776	-0.5462857524413564	0.0	0.8359820398645965	-0.5888340690922405	0.0
82	2.7510822510822512	0.8085880855219867	-0.5795192553612594	0.0	0.8053505495887897	-0.5798768296310071	0.0	0.8702831753521957	-0.6609629218290007	0.0	0.8223224478203207	-0.7441632510393817	0.0	0.8502783148625874	-0.7712000381077678	0.0	0.8398079276382105	-0.7707845202674609	0.0	0.8088256254027002	-0.7530630780563554	0.0	0.8085162200546104	-0.5791936531789291	0.0	0.8598353484950989	-0.6624731191856473	0.0	0.7859650786297258	-0.7057102487758745	0.0	0.7893230171476279	-0.746547654429898	0.0	0.7863552620454416	-0.7396513888476276	0.0	0.7714728352529368	-0.7053688027438041	0.0	0.8484537388555125	-0.4608483201372302	0.0	0.8829237226746129	-0.4071390407795835	0.0	0.8853685091343385	-0.44179168952443165	0.0	0.8364248124587761	-0.4715703006655422	0.0	0.8133376310222517	-0.523686990055066	0.0	0.8621322165960889	-0.556841503670916	0.0	0.8410106438249265	-0.4729753462822274	0.0	0.8177563871751875	-0.5284195750947831	0.0	0.8441168264093802	-0.5709919953509222	0.0
83	2.784632034632035	0.8165786050956	-0.5641889546682418	0.0	0.8139157980095011	-0.5646917089169514	0.0	0.8789031094649953	-0.6460677797977777	0.0	0.8313209411338489	-0.7298091257885921	0.0	0.8594419983399175	-0.761267509662737	0.0	0.8489860737100725	-0.7602799513646348	0.0	0.8175335701873147	-0.738914085641459	0.0	0.8169713096621076	-0.5640542850044961	0.0	0.8732998872662918	-0.6460296136514341	0.0	0.8070432054809992	-0.698751580775645	0.0	0.8180193788499388	-0.7399169101260044	0.0	0.8135971813199389	-0.7330462533383968	0.0	0.7925056004553793	-0.7007724024188327	0.0	0.8557540295539041	-0.44534973695211083	0.0	0.8929978037987177	-0.3918586739013109	0.0	0.893054911596817	-0.4264824982198864	0.0	0.8440519392689286	-0.455270337873981	0.0	0.8213359640812875	-0.506791147820568	0.0	0.8722966003964523	-0.538311033511209	0.0	0.8484945964413144	-0.4569049535701086	0.0	0.8239258990534749	-0.5120462548327571	0.0	0.8532626934186979	-0.554396006171133	0.0
84	2.8181818181818183	0.8249514044096027	-0.5518680223100461	0.0	0.8228955185152227	-0.5525990391235871	0.0	0.8871827802087329	-0.6345119890135582	0.0	0.8433164968635635	-0.7201113848566781	0.0	0.872179681226899	-0.7539743205883495	0.0	0.8618203956117186	-0.7529902551893947	0.0	0.8296715456091801	-0.7297853532979537	0.0	0.8257104594541088	-0.5519438557308581	0.0	0.884129930060006	-0.6335713813478363	0.0	0.8292004590276321	-0.6983643150204835	0.0	0.848664185654045	-0.7380769423230849	0.0	0.8427962321830125	-0.7316674763250735	0.0	0.8149775453468953	-0.7034728858965618	0.0	0.8628636530207942	-0.4325148067318313	0.0	0.9030975756956644	-0.37930559011594084	0.0	0.9004442720278951	-0.4137675500269553	0.0	0.8514287933014139	-0.44171092942480505	0.0	0.8287699385678825	-0.493013153270114	0.0	0.8813323777935871	-0.5233108578832749	0.0	0.8558269387723892	-0.4436030195497375	0.0	0.8303293458771229	-0.49838974504439876	0.0	0.8636173921143069	-0.5403049248821143	0.0
85	2.851731601731602	0.833709413364967	-0.5429790918472136	0.0	0.8320911609532138	-0.5438708067587439	0.0	0.8948880764460402	-0.626702107492108	0.0	0.8584123157332223	-0.715234435820986	0.0	0.8891402039639741	-0.7491219466528573	0.0	0.8788698057062857	-0.7487754065931767	0.0	0.8453831270241573	-0.7259592861137394	0.0	0.8349836498219108	-0.5431442702077751	0.0	0.8928474176577348	-0.6253542058006957	0.0	0.8516628922460642	-0.702267688151622	0.0	0.8788693983727186	-0.738937764409956	0.0	0.871970835507365	-0.7333951617092086	0.0	0.8380483377629505	-0.7105791677199913	0.0	0.8699152560805562	-0.42298775670298094	0.0	0.9128535964746837	-0.3701276220533037	0.0	0.9076078289019933	-0.40447866460895293	0.0	0.8585005125984744	-0.43161588486645047	0.0	0.8357439112513956	-0.4831231895653497	0.0	0.889258216543419	-0.5129674284638928	0.0	0.8630872234499954	-0.43385164731051246	0.0	0.8373664008882805	-0.4883299614988014	0.0	0.8749935151650305	-0.5297474424005816	0.0
86	2.8852813852813854	0.8428026166389759	-0.537740382459443	0.0	0.8413423571446436	-0.538600064761823	0.0	0.9019783984035452	-0.6227515636108463	0.0	0.8759933592959916	-0.7147059227797079	0.0	0.9096291831236186	-0.7466042197493248	0.0	0.8995181683947802	-0.7473281647178054	0.0	0.8639592216288291	-0.7267795230122186	0.0	0.8448634511604511	-0.5377990173340865	0.0	0.900254799727171	-0.6212553620423844	0.0	0.8736716578029353	-0.7082930451020857	0.0	0.9070640667927865	-0.7409038536506851	0.0	0.8996790245597709	-0.7364506883501789	0.0	0.8607667543616359	-0.7194010365348936	0.0	0.8770086220585938	-0.4171340163987596	0.0	0.9218076327871069	-0.36458430475657955	0.0	0.9146378636324451	-0.39912843038833545	0.0	0.8652155701725414	-0.42534547384524957	0.0	0.8425204042272337	-0.4775242477723262	0.0	0.8964764830602339	-0.5078745130056346	0.0	0.8704079453341601	-0.42807092508601996	0.0	0.8455386142306185	-0.4825400315364674	0.0	0.8869014925035685	-0.5235986164656742	0.0
87	2.918831168831169	0.8522142145028242	-0.5363272286782655	0.0	0.8505879290807687	-0.5369477599755802	0.0	0.9087180800237586	-0.6226036552412512	0.0	0.89464918250852	-0.7177486925880497	0.0	0.9316510491157521	-0.7464410732508374	0.0	0.9218874407377555	-0.7483671899538941	0.0	0.8838130963015562	-0.7311621695807269	0.0	0.855257665893335	-0.536095136241989	0.0	0.9071790558192662	-0.6210337461866667	0.0	0.8944570577676445	-0.7152406941255193	0.0	0.9324309230930103	-0.7435162644466236	0.0	0.9250098171529193	-0.7401624651387694	0.0	0.8821360411103112	-0.7284778055837028	0.0	0.8841240338914467	-0.41515266774778564	0.0	0.9296374903073501	-0.36265025510838933	0.0	0.9215593735134153	-0.3978527000846574	0.0	0.8715628668143258	-0.42302940775426934	0.0	0.8494531331635825	-0.4763522818858669	0.0	0.9035544061726689	-0.5081180148081667	0.0	0.8778713713538605	-0.4264063965027189	0.0	0.855280827433387	-0.48136966380368457	0.0	0.8990049954586109	-0.522325186970525	0.0
88	2.9523809523809526	0.8619493176916484	-0.5388794168657146	0.0	0.8598652270119366	-0.5391822370513554	0.0	0.9155775822933161	-0.6261448912750669	0.0	0.9125481100754145	-0.7237594847865945	0.0	0.9526610135721105	-0.748832040685763	0.0	0.9434686270168438	-0.7518401964135704	0.0	0.9029230121177502	-0.7382534353138945	0.0	0.865960440531853	-0.5382711653989368	0.0	0.9142610480968754	-0.6245130012072827	0.0	0.9131244562773249	-0.7229615917797477	0.0	0.9542744135605186	-0.747265674923956	0.0	0.9470743424855801	-0.7448528567317125	0.0	0.9011571142150528	-0.7376499668217515	0.0	0.8911323651106305	-0.41714499680186284	0.0	0.9362121892790464	-0.36412638465918884	0.0	0.9283032684104543	-0.4004325402424193	0.0	0.8776206054074075	-0.42471028170214475	0.0	0.8568576787610938	-0.47956577835210334	0.0	0.911005293671819	-0.5133009950838306	0.0	0.88549243974557	-0.4288362909558376	0.0	0.8668178793535324	-0.48475020165080845	0.0	0.9114079036256807	-0.5258192867815362	0.0
